<?xml version="1.0" encoding="UTF-8" standalone="no"?>
<svg
   xmlns:dc="http://purl.org/dc/elements/1.1/"
   xmlns:cc="http://creativecommons.org/ns#"
   xmlns:rdf="http://www.w3.org/1999/02/22-rdf-syntax-ns#"
   xmlns:svg="http://www.w3.org/2000/svg"
   xmlns="http://www.w3.org/2000/svg"
   xml:space="preserve"
   enable-background="new 0 0 2560 1600"
   viewBox="0 0 2560 1600"
   y="0px"
   x="0px"
   id="Layer_1"
   version="1.1"><metadata
     id="metadata16"><rdf:RDF><cc:Work
         rdf:about=""><dc:format>image/svg+xml</dc:format><dc:type
           rdf:resource="http://purl.org/dc/dcmitype/StillImage" /><dc:title></dc:title></cc:Work></rdf:RDF></metadata><defs
     id="defs14" /><pattern
     overflow="visible"
     viewBox="0.0001 -42.8047 46.7284 42.8048"
     id="New_Pattern"
     patternUnits="userSpaceOnUse"
     height="42.8048"
     width="46.7284"><g
       id="g4"><polygon
         id="polygon6"
         points="0.0001,-42.8047 46.7284,-42.8047 46.7284,0 0.0001,0   "
         fill="none" /><path
         d="M15.0835-42.8044h1.5203c0.0105,0.0002,0.021,0.0016,0.0313,0.0043    l0.2547,0.0584c0.0382,0.0088,0.0732,0.0336,0.1,0.0709l0.3438,0.4817v-0.0043c0.0096-0.0756,0.0456-0.1406,0.0969-0.1752    l0.6109-0.4108c0.0253-0.0167,0.0531-0.0252,0.0813-0.025h1.5203c0.0105,0.0002,0.021,0.0016,0.0313,0.0043l0.2547,0.0584    c0.0382,0.0088,0.0732,0.0336,0.1,0.0709l0.3453,0.4838v-0.0064c0.0096-0.0756,0.0456-0.1406,0.0969-0.1752l0.6109-0.4108    c0.0253-0.0167,0.0531-0.0252,0.0813-0.025h1.5203c0.0105,0.0002,0.021,0.0016,0.0313,0.0043l0.2547,0.0584    c0.0382,0.0088,0.0732,0.0336,0.1,0.0709l0.4719,0.6611c0.0143,0.0201,0.026,0.0434,0.0344,0.0688l0.2625-0.2148    c0.0491-0.0396,0.1094-0.0458,0.1625-0.0166l0.6344,0.342c0.0262,0.0135,0.0498,0.0349,0.0687,0.0626l1.0031,1.5223    c0.007,0.011,0.0133,0.0229,0.0187,0.0354l0.1344,0.294c0.0197,0.0439,0.0284,0.095,0.025,0.146l-0.0437,0.6673l0.0048-0.0043    c0.0485-0.0396,0.1081-0.0466,0.1609-0.0188l0.6344,0.3399c0.0265,0.0146,0.0501,0.0375,0.0687,0.0667l1.0031,1.5244    c0.0069,0.0097,0.0131,0.0202,0.0187,0.0313l0.1359,0.294c0.02,0.0445,0.0288,0.0964,0.025,0.1481l-0.0437,0.6631l0.0016-0.0021    c0.0491-0.0396,0.1094-0.0458,0.1625-0.0166l0.6344,0.342c0.0264,0.0141,0.0499,0.0362,0.0687,0.0647l1.0031,1.5244    c0.0069,0.0097,0.0131,0.0202,0.0187,0.0313l0.1359,0.294c0.02,0.0445,0.0288,0.0964,0.025,0.1481l-0.0438,0.6652l0.0032-0.0043    c0.0485-0.0396,0.1081-0.0466,0.1609-0.0188l0.6344,0.3399c0.0265,0.0146,0.0501,0.0375,0.0687,0.0667l1.0031,1.5244    c0.0069,0.0097,0.0131,0.0202,0.0187,0.0313l0.1359,0.294c0.02,0.0445,0.0288,0.0964,0.025,0.1481l-0.0438,0.6631l0.0032-0.0021    c0.0491-0.0396,0.1094-0.0458,0.1625-0.0167l0.6344,0.342c0.0264,0.014,0.0499,0.0362,0.0687,0.0646l1.0031,1.5244    c0.007,0.0104,0.0132,0.0215,0.0187,0.0333l0.1344,0.294c0.0197,0.0439,0.0284,0.095,0.025,0.146l-0.0438,0.6631l0.0032-0.0021    c0.0489-0.0403,0.1092-0.0473,0.1625-0.0188l0.6344,0.3399c0.0265,0.0146,0.0501,0.0375,0.0687,0.0667l1.0031,1.5244    c0.007,0.0104,0.0132,0.0215,0.0187,0.0333l0.1344,0.2941c0.0197,0.0439,0.0284,0.095,0.025,0.146l-0.0438,0.6631l0.0032-0.0021    c0.0491-0.0396,0.1094-0.0458,0.1625-0.0166l0.6344,0.342c0.0264,0.014,0.0499,0.0362,0.0687,0.0646l1.0031,1.5244    c0.0069,0.0097,0.0131,0.0202,0.0187,0.0313l0.1357,0.2939c0.02,0.0445,0.0288,0.0964,0.025,0.1481l-0.0203,0.2961l0.2422-0.1585    c0.0253-0.0167,0.0531-0.0252,0.0813-0.025l1.5203,0.025c0.0105,0.0002,0.021,0.0016,0.0313,0.0043l0.2547,0.0626    c0.0384,0.0094,0.0734,0.035,0.1,0.073l0.3406,0.488v-0.0043c0.0104-0.0752,0.0469-0.1394,0.0984-0.1731l0.6141-0.4004    c0.0253-0.0166,0.0531-0.0252,0.0812-0.025l1.5203,0.025c0.0105,0.0002,0.021,0.0016,0.0313,0.0043l0.2531,0.0626    c0.0384,0.0094,0.0734,0.035,0.1,0.073l0.3406,0.4859v-0.0021c0.0105-0.0752,0.047-0.1394,0.0984-0.1731l0.6141-0.4004    c0.0253-0.0166,0.0531-0.0252,0.0812-0.025l1.5203,0.025c0.0105,0.0002,0.021,0.0016,0.0313,0.0043l0.2547,0.0626    c0.0384,0.0094,0.0734,0.035,0.1,0.073l0.4656,0.6694c0.0389,0.056,0.0557,0.1334,0.0453,0.2085l-0.125,0.8967    c-0.0104,0.0752-0.0469,0.1394-0.0984,0.1731l-0.6141,0.4004c-0.0253,0.0166-0.0531,0.0252-0.0812,0.025l-1.5203-0.025    c-0.0105-0.0002-0.021-0.0016-0.0313-0.0043l-0.2547-0.0626c-0.0384-0.0094-0.0734-0.035-0.1-0.073l-0.3391-0.4859v0.0021    c-0.0104,0.0752-0.0469,0.1394-0.0984,0.1731l-0.6156,0.4004c-0.0253,0.0166-0.0531,0.0252-0.0812,0.025l-1.5188-0.025    c-0.011-0.0001-0.022-0.0015-0.0328-0.0043l-0.2547-0.0647c-0.0378-0.0098-0.0723-0.0354-0.0984-0.073l-0.3406-0.488v0.0064    c-0.0104,0.0752-0.0469,0.1394-0.0984,0.1731l-0.6141,0.4004c-0.0257,0.017-0.0541,0.0255-0.0828,0.025l-1.5203-0.0271    c-0.01-0.0003-0.0199-0.0018-0.0297-0.0043l-0.2531-0.0626c-0.0384-0.0094-0.0734-0.035-0.1-0.073l-0.4672-0.6673    c-0.0389-0.056-0.0557-0.1334-0.0453-0.2085l0.0203-0.1439l-0.1328,0.1084c-0.0491,0.0396-0.1094,0.0458-0.1625,0.0166    l-0.6344-0.342c-0.0264-0.0141-0.0499-0.0362-0.0687-0.0647l-1.0031-1.5244c-0.007-0.0104-0.0132-0.0215-0.0187-0.0333    l-0.1344-0.294c-0.0197-0.0439-0.0284-0.095-0.025-0.146l0.0438-0.6631l-0.0032,0.0021    c-0.0491,0.0396-0.1094,0.0458-0.1625,0.0167l-0.6344-0.342c-0.0262-0.0135-0.0498-0.0349-0.0687-0.0626l-1.0031-1.5223    c-0.007-0.011-0.0133-0.0229-0.0187-0.0354l-0.1344-0.2961c-0.0197-0.0439-0.0284-0.095-0.025-0.146l0.0438-0.6652l-0.0048,0.0043    c-0.0485,0.0396-0.1081,0.0466-0.1609,0.0188l-0.6344-0.3399c-0.0265-0.0146-0.0501-0.0375-0.0687-0.0667l-1.0031-1.5244    c-0.0069-0.0097-0.0131-0.0202-0.0187-0.0313l-0.1359-0.294c-0.02-0.0445-0.0288-0.0964-0.025-0.1481l0.0438-0.6631    l-0.0016,0.0021c-0.0491,0.0396-0.1094,0.0458-0.1625,0.0166l-0.6344-0.342c-0.0264-0.014-0.0499-0.0362-0.0687-0.0646    l-1.0031-1.5244c-0.0069-0.0097-0.0131-0.0202-0.0187-0.0313l-0.1359-0.2946c-0.02-0.0445-0.0288-0.0964-0.025-0.1481    l0.0437-0.6652l-0.0048,0.0043c-0.0485,0.0396-0.1081,0.0466-0.1609,0.0188l-0.6344-0.3399    c-0.0265-0.0146-0.0501-0.0375-0.0687-0.0667l-1.0031-1.5244c-0.007-0.0104-0.0132-0.0215-0.0187-0.0333l-0.1344-0.294    c-0.0197-0.0439-0.0284-0.095-0.025-0.146l0.0438-0.6631l-0.0032,0.0021c-0.0491,0.0396-0.1094,0.0458-0.1625,0.0167    l-0.6344-0.342c-0.0264-0.014-0.0499-0.0362-0.0687-0.0646l-1.0031-1.5244c-0.007-0.0104-0.0132-0.0215-0.0187-0.0333    l-0.1344-0.294c-0.0197-0.0439-0.0284-0.095-0.025-0.146l0.0438-0.6631l-0.0032,0.0021    c-0.0489,0.0403-0.1092,0.0473-0.1625,0.0188l-0.6344-0.3399c-0.0265-0.0146-0.0501-0.0375-0.0687-0.0667l-1.0031-1.5244    c-0.0069-0.0097-0.0131-0.0202-0.0187-0.0313l-0.1359-0.294c-0.0157-0.034-0.0248-0.0727-0.0266-0.1126l-0.3438,0.2315    c-0.0253,0.0167-0.0531,0.0252-0.0812,0.025h-1.5203c-0.0105-0.0002-0.021-0.0016-0.0313-0.0043l-0.2547-0.0584    c-0.0382-0.0088-0.0732-0.0336-0.1-0.0709l-0.3453-0.4838v0.0064c-0.0096,0.0756-0.0456,0.1406-0.0969,0.1752l-0.6109,0.4108    c-0.0253,0.0167-0.0531,0.0252-0.0812,0.025h-1.5203c-0.0105-0.0002-0.021-0.0016-0.0313-0.0043l-0.2547-0.0584    c-0.0382-0.0088-0.0732-0.0336-0.1-0.0709l-0.3453-0.4838v0.0064c-0.0101,0.0748-0.046,0.1389-0.0969,0.1731l-0.6094,0.4108    c-0.0251,0.0174-0.053,0.0267-0.0812,0.0271h-1.5203c-0.0105-0.0002-0.021-0.0016-0.0313-0.0043l-0.1844-0.0417l-0.1453,0.7424    c-0.0071,0.0363-0.0205,0.0698-0.039,0.098l-1.0031,1.5244c-0.0066,0.0105-0.014,0.0203-0.0219,0.0291l-0.2016,0.2169    c-0.0306,0.0333-0.0684,0.0523-0.1078,0.0542l-0.4984,0.025l0.0016,0.0043c0.0361,0.0596,0.0489,0.1385,0.0344,0.2127    l-0.1719,0.8821c-0.0069,0.037-0.0203,0.0713-0.039,0.1l-1.0047,1.5223c-0.0067,0.0098-0.014,0.0189-0.0219,0.0271l-0.2016,0.2169    c-0.0301,0.0328-0.0674,0.0519-0.1062,0.0542l-0.4984,0.0271l0.0016,0.0021c0.0361,0.0596,0.0488,0.1385,0.0344,0.2127    l-0.1719,0.8842c-0.0069,0.037-0.0203,0.0713-0.039,0.1l-1.0047,1.5223c-0.0067,0.0098-0.014,0.0189-0.0219,0.0271l-0.2016,0.2169    c-0.0301,0.0328-0.0674,0.0519-0.1062,0.0542l-0.4984,0.0271l0.0016,0.0021c0.0361,0.0596,0.0489,0.1385,0.0344,0.2127    l-0.1734,0.8821c-0.0071,0.0363-0.0205,0.0698-0.039,0.098l-1.0031,1.5244c-0.0071,0.0114-0.0149,0.0218-0.0234,0.0313    l-0.2016,0.2148c-0.0299,0.0317-0.0666,0.0499-0.1047,0.0521l-0.5,0.0271l0.0016,0.0021    c0.0361,0.0596,0.0489,0.1385,0.0344,0.2127L6.69-27.4109c-0.0069,0.037-0.0203,0.0713-0.039,0.1l-1.0047,1.5223    c-0.0067,0.0098-0.014,0.0189-0.0219,0.0271l-0.2,0.2169c-0.0301,0.0328-0.0674,0.0519-0.1062,0.0542l-0.5,0.0271l0.0016,0.0021    c0.0361,0.0596,0.0489,0.1385,0.0344,0.2127l-0.1719,0.8821c-0.0069,0.037-0.0203,0.0713-0.039,0.1l-1.0047,1.5244    c-0.0067,0.0098-0.014,0.0189-0.0219,0.0271l-0.2016,0.2169c-0.0301,0.0328-0.0674,0.0519-0.1063,0.0542l-0.4984,0.025    l0.0016,0.0043c0.0361,0.0596,0.0488,0.1385,0.0344,0.2127l-0.1734,0.8821c-0.0069,0.037-0.0203,0.0713-0.039,0.1l-1.0031,1.5223    c-0.0067,0.0098-0.014,0.0189-0.0219,0.0271l-0.2016,0.2169c-0.0301,0.0328-0.0674,0.0519-0.1063,0.0542l-0.6828,0.0376    C0.5611-19.3581,0.506-19.3914,0.47-19.451l-0.4297-0.7111c-0.0361-0.0596-0.0489-0.1385-0.0344-0.2127l0.1719-0.8821    c0.0069-0.037,0.0203-0.0713,0.039-0.1l1.0047-1.5244c0.0072-0.0106,0.015-0.0204,0.0234-0.0291l0.2016-0.2148    c0.0299-0.0317,0.0666-0.0499,0.1047-0.0521l0.4984-0.0271L2.048-23.2067c-0.0361-0.0596-0.0489-0.1385-0.0344-0.2127    l0.1734-0.8842c0.0069-0.037,0.0203-0.0712,0.0391-0.1l1.0031-1.5223c0.0067-0.0098,0.014-0.0189,0.0219-0.0271l0.2016-0.2169    c0.0301-0.0328,0.0674-0.0519,0.1063-0.0542l0.5-0.0271l-0.0016-0.0021c-0.0361-0.0596-0.0489-0.1385-0.0344-0.2127l0.1719-0.8842    c0.0069-0.037,0.0203-0.0713,0.039-0.1l1.0047-1.5223c0.0067-0.0098,0.014-0.0189,0.0219-0.0271l0.2016-0.2169    c0.0301-0.0328,0.0674-0.0519,0.1062-0.0542l0.4984-0.025L6.065-29.3001c-0.0361-0.0596-0.0489-0.1385-0.0344-0.2127    l0.1719-0.8821c0.0069-0.037,0.0203-0.0713,0.039-0.1l1.0047-1.5223c0.0067-0.0098,0.014-0.0189,0.0219-0.0271l0.2016-0.2169    c0.0301-0.0328,0.0674-0.0519,0.1062-0.0542l0.4984-0.0271l-0.0016-0.0021c-0.0361-0.0596-0.0488-0.1385-0.0344-0.2127    l0.1734-0.8842c0.0069-0.037,0.0203-0.0713,0.039-0.1l1.0031-1.5223c0.0067-0.0098,0.014-0.0189,0.0219-0.0271l0.2016-0.2169    c0.0301-0.0328,0.0674-0.0519,0.1062-0.0542l0.5-0.0271l-0.0016-0.0021c-0.0361-0.0596-0.0489-0.1385-0.0344-0.2127l0.1719-0.8821    c0.0069-0.037,0.0203-0.0713,0.039-0.1l1.0047-1.5244c0.0072-0.0106,0.015-0.0204,0.0234-0.0291l0.2016-0.2148    c0.0299-0.0317,0.0666-0.0499,0.1047-0.0521l0.4984-0.0271l-0.0016-0.0021c-0.0361-0.0596-0.0489-0.1385-0.0344-0.2127    l0.1719-0.8842c0.0069-0.037,0.0203-0.0713,0.039-0.1l1.0047-1.5223c0.0067-0.0098,0.014-0.0189,0.0219-0.0271l0.2016-0.2169    c0.0301-0.0328,0.0674-0.0519,0.1062-0.0542l0.6016-0.0333l0.0922-0.7069c0.0096-0.0756,0.0456-0.1406,0.0969-0.1752    l0.6109-0.4108c0.0253-0.0166,0.0531-0.0252,0.0812-0.025L15.0835-42.8044z"
         id="path4550_5_" /><path
         d="M15.0835-0.0004h1.5203c0.0105-0.0002,0.021-0.0016,0.0313-0.0043    l0.2547-0.0584c0.0382-0.0088,0.0732-0.0336,0.1-0.0709l0.3438-0.4817v0.0043c0.0096,0.0756,0.0456,0.1406,0.0969,0.1752    l0.6109,0.4108c0.0253,0.0167,0.0531,0.0252,0.0812,0.025h1.5203c0.0105-0.0002,0.021-0.0016,0.0313-0.0043l0.2547-0.0584    c0.0382-0.0088,0.0732-0.0336,0.1-0.0709l0.3453-0.4838v0.0064c0.0096,0.0756,0.0456,0.1406,0.0969,0.1752l0.6109,0.4108    c0.0253,0.0167,0.0531,0.0252,0.0812,0.025h1.5203c0.0105-0.0002,0.021-0.0016,0.0313-0.0043l0.2547-0.0584    c0.0382-0.0088,0.0732-0.0336,0.1-0.0709l0.4719-0.6611c0.0143-0.0201,0.026-0.0434,0.0344-0.0688l0.2625,0.2148    c0.0491,0.0396,0.1094,0.0458,0.1625,0.0167l0.6344-0.342c0.0262-0.0135,0.0498-0.0349,0.0687-0.0626l1.0031-1.5223    c0.007-0.011,0.0133-0.0229,0.0187-0.0355l0.1344-0.294c0.0197-0.0439,0.0284-0.095,0.025-0.146L25.8413-3.702l0.0048,0.0043    c0.0485,0.0396,0.1081,0.0466,0.1609,0.0188l0.6344-0.3399c0.0265-0.0146,0.0501-0.0375,0.0687-0.0667L27.7133-5.61    c0.0069-0.0097,0.0131-0.0202,0.0187-0.0313l0.1359-0.294c0.02-0.0445,0.0288-0.0964,0.025-0.1481l-0.0437-0.6631l0.0016,0.0021    c0.0491,0.0396,0.1094,0.0458,0.1625,0.0167l0.6344-0.342c0.0264-0.0141,0.0499-0.0362,0.0687-0.0647l1.0031-1.5244    c0.0069-0.0097,0.0131-0.0202,0.0187-0.0313l0.1359-0.294c0.02-0.0445,0.0288-0.0964,0.025-0.1481l-0.0437-0.6652l0.0032,0.0043    c0.0485,0.0396,0.1081,0.0466,0.1609,0.0188l0.6344-0.3399c0.0265-0.0146,0.0501-0.0375,0.0687-0.0667l1.0031-1.5244    c0.0069-0.0097,0.0131-0.0202,0.0187-0.0313l0.1359-0.294c0.02-0.0445,0.0288-0.0964,0.025-0.1481l-0.0437-0.6631l0.0032,0.0021    c0.0491,0.0396,0.1094,0.0458,0.1625,0.0167l0.6344-0.342c0.0264-0.014,0.0499-0.0362,0.0687-0.0646l1.0031-1.5244    c0.007-0.0104,0.0132-0.0215,0.0187-0.0333l0.1344-0.294c0.0197-0.0439,0.0284-0.095,0.025-0.146l-0.0438-0.6631l0.0032,0.0021    c0.0489,0.0403,0.1092,0.0473,0.1625,0.0188l0.6344-0.3399c0.0265-0.0146,0.0501-0.0375,0.0687-0.0667l1.0031-1.5244    c0.007-0.0104,0.0132-0.0215,0.0187-0.0333l0.1344-0.2941c0.0197-0.0439,0.0284-0.095,0.025-0.146l-0.0438-0.6631l0.0032,0.0021    c0.0491,0.0396,0.1094,0.0458,0.1625,0.0167l0.6344-0.342c0.0264-0.014,0.0499-0.0362,0.0687-0.0646l1.0031-1.5244    c0.0069-0.0097,0.0131-0.0202,0.0187-0.0313l0.1357-0.2939c0.02-0.0445,0.0288-0.0964,0.025-0.1481l-0.0203-0.2961l0.2422,0.1585    c0.0253,0.0166,0.0531,0.0252,0.0812,0.025l1.5203-0.025c0.0105-0.0002,0.021-0.0016,0.0313-0.0043l0.2547-0.0626    c0.0384-0.0094,0.0734-0.035,0.1-0.073l0.3406-0.488v0.0043c0.0105,0.0752,0.047,0.1394,0.0984,0.1731l0.6141,0.4004    c0.0253,0.0167,0.0531,0.0252,0.0812,0.025l1.5203-0.025c0.0105-0.0002,0.021-0.0016,0.0313-0.0043l0.2531-0.0626    c0.0384-0.0094,0.0734-0.035,0.1-0.073l0.3406-0.4859v0.0021c0.0104,0.0752,0.0469,0.1394,0.0984,0.1731l0.6141,0.4004    c0.0253,0.0167,0.0531,0.0252,0.0813,0.025l1.5203-0.025c0.0105-0.0002,0.021-0.0016,0.0313-0.0043l0.2547-0.0626    c0.0384-0.0094,0.0734-0.035,0.1-0.073l0.4656-0.6694c0.0389-0.056,0.0557-0.1334,0.0453-0.2085l-0.125-0.8967    c-0.0104-0.0752-0.0469-0.1394-0.0984-0.1731l-0.6141-0.4004c-0.0253-0.0167-0.0531-0.0252-0.0812-0.025l-1.5203,0.025    c-0.0105,0.0002-0.021,0.0016-0.0313,0.0043l-0.2547,0.0626c-0.0384,0.0094-0.0734,0.035-0.1,0.073l-0.3391,0.4859v-0.0021    c-0.0104-0.0752-0.0469-0.1394-0.0984-0.1731l-0.6156-0.4004c-0.0253-0.0167-0.0531-0.0252-0.0812-0.025l-1.5187,0.025    c-0.011,0.0001-0.022,0.0015-0.0328,0.0043l-0.2547,0.0647c-0.0378,0.0098-0.0723,0.0354-0.0984,0.073l-0.3406,0.488v-0.0064    c-0.0104-0.0752-0.0469-0.1394-0.0984-0.1731l-0.6141-0.4004c-0.0257-0.017-0.0541-0.0255-0.0828-0.025l-1.5203,0.0271    c-0.01,0.0003-0.0199,0.0018-0.0297,0.0043l-0.2531,0.0626c-0.0384,0.0094-0.0734,0.035-0.1,0.073l-0.4672,0.6673    c-0.0389,0.056-0.0557,0.1334-0.0453,0.2085l0.0203,0.1439l-0.1328-0.1084c-0.0491-0.0396-0.1094-0.0458-0.1625-0.0167    l-0.6344,0.342c-0.0264,0.0141-0.0499,0.0362-0.0687,0.0647l-1.0031,1.5244c-0.007,0.0104-0.0132,0.0215-0.0187,0.0333    l-0.1344,0.294c-0.0197,0.0439-0.0284,0.095-0.025,0.146l0.0438,0.6631l-0.0032-0.0021    c-0.0491-0.0396-0.1094-0.0458-0.1625-0.0166l-0.6344,0.342c-0.0262,0.0135-0.0498,0.0349-0.0687,0.0626l-1.0031,1.5223    c-0.007,0.011-0.0133,0.0229-0.0187,0.0354l-0.1344,0.2961c-0.0197,0.0439-0.0284,0.095-0.025,0.146l0.0438,0.6652l-0.0048-0.0043    c-0.0485-0.0396-0.1081-0.0466-0.1609-0.0188l-0.6344,0.3399c-0.0265,0.0146-0.0501,0.0375-0.0687,0.0667l-1.0031,1.5244    c-0.0069,0.0097-0.0131,0.0202-0.0187,0.0313l-0.1359,0.294c-0.02,0.0445-0.0288,0.0964-0.025,0.1481l0.0438,0.6631    l-0.0016-0.0021c-0.0491-0.0396-0.1094-0.0458-0.1625-0.0167l-0.6344,0.342c-0.0264,0.014-0.0499,0.0362-0.0687,0.0646    l-1.0031,1.5244c-0.0069,0.0097-0.0131,0.0202-0.0187,0.0313l-0.1359,0.2946c-0.02,0.0445-0.0288,0.0964-0.025,0.1481    l0.0437,0.6652l-0.0048-0.0043c-0.0485-0.0396-0.1081-0.0466-0.1609-0.0188l-0.6344,0.3399    c-0.0265,0.0146-0.0501,0.0375-0.0687,0.0667l-1.0031,1.5244c-0.007,0.0104-0.0132,0.0215-0.0187,0.0333l-0.1344,0.294    c-0.0197,0.0439-0.0284,0.095-0.025,0.146l0.0437,0.6631l-0.0032-0.0021c-0.0491-0.0396-0.1094-0.0458-0.1625-0.0167    l-0.6344,0.342c-0.0264,0.014-0.0499,0.0362-0.0687,0.0646l-1.0031,1.5244c-0.007,0.0104-0.0132,0.0215-0.0187,0.0333    l-0.1344,0.294c-0.0197,0.0439-0.0284,0.095-0.025,0.146l0.0437,0.6631l-0.0032-0.0021    c-0.0489-0.0403-0.1092-0.0473-0.1625-0.0188l-0.6344,0.3399c-0.0265,0.0146-0.0501,0.0375-0.0687,0.0667L23.2896-2.694    c-0.0069,0.0097-0.0131,0.0202-0.0187,0.0313l-0.1359,0.294c-0.0157,0.034-0.0248,0.0727-0.0266,0.1126l-0.3438-0.2315    c-0.0253-0.0167-0.0531-0.0252-0.0813-0.025h-1.5203c-0.0105,0.0002-0.021,0.0016-0.0313,0.0043l-0.2547,0.0584    c-0.0382,0.0088-0.0732,0.0336-0.1,0.0709l-0.3453,0.4838v-0.0064c-0.0096-0.0756-0.0456-0.1406-0.0969-0.1752L19.724-2.4876    c-0.0253-0.0167-0.0531-0.0252-0.0813-0.025h-1.5203c-0.0105,0.0002-0.021,0.0016-0.0313,0.0043l-0.2547,0.0584    c-0.0382,0.0088-0.0732,0.0336-0.1,0.0709l-0.3453,0.4838v-0.0064c-0.0101-0.0748-0.046-0.1389-0.0969-0.1731l-0.6094-0.4108    c-0.0251-0.0174-0.053-0.0267-0.0812-0.0271h-1.5203c-0.0105,0.0002-0.021,0.0016-0.0313,0.0043l-0.1844,0.0417L14.7224-3.209    c-0.0071-0.0363-0.0205-0.0698-0.039-0.098l-1.0031-1.5244c-0.0066-0.0105-0.014-0.0203-0.0219-0.0291l-0.2016-0.2169    c-0.0306-0.0333-0.0684-0.0523-0.1078-0.0542l-0.4984-0.025l0.0016-0.0043c0.0361-0.0596,0.0489-0.1385,0.0344-0.2127    l-0.1719-0.8821c-0.0069-0.037-0.0203-0.0713-0.039-0.1L11.671-7.8781c-0.0067-0.0098-0.014-0.0189-0.0219-0.0271l-0.2016-0.2169    c-0.0301-0.0328-0.0674-0.0519-0.1062-0.0542l-0.4984-0.0271l0.0016-0.0021c0.0361-0.0596,0.0488-0.1385,0.0344-0.2127    L10.707-9.3025c-0.0069-0.037-0.0203-0.0713-0.039-0.1l-1.0047-1.5223c-0.0067-0.0098-0.014-0.0189-0.0219-0.0271l-0.2016-0.2169    c-0.0301-0.0328-0.0674-0.0519-0.1062-0.0542l-0.4984-0.0271l0.0016-0.0021c0.0361-0.0596,0.0489-0.1385,0.0344-0.2127    l-0.1734-0.8821c-0.0071-0.0363-0.0205-0.0698-0.039-0.098l-1.0031-1.5244c-0.0071-0.0114-0.0149-0.0218-0.0234-0.0313    l-0.2016-0.2148c-0.0299-0.0317-0.0666-0.0499-0.1047-0.0521l-0.5-0.0271l0.0016-0.0021    c0.0361-0.0596,0.0489-0.1385,0.0344-0.2127L6.69-15.3939c-0.0069-0.037-0.0203-0.0713-0.039-0.1l-1.0047-1.5223    c-0.0067-0.0098-0.014-0.0189-0.0219-0.0271l-0.2-0.2169c-0.0301-0.0328-0.0674-0.0519-0.1062-0.0542l-0.5-0.0271l0.0016-0.0021    c0.0361-0.0596,0.0489-0.1385,0.0344-0.2127l-0.1719-0.8821c-0.0069-0.037-0.0203-0.0713-0.039-0.1L3.6386-20.063    c-0.0067-0.0098-0.014-0.0189-0.0219-0.0271L3.4152-20.307c-0.0301-0.0328-0.0674-0.0519-0.1062-0.0542l-0.4984-0.025    l0.0016-0.0043c0.0361-0.0596,0.0488-0.1385,0.0344-0.2127l-0.1734-0.8821c-0.0069-0.037-0.0203-0.0713-0.039-0.1l-1.0031-1.5223    c-0.0067-0.0098-0.014-0.0189-0.0219-0.0271l-0.2016-0.2169c-0.0301-0.0328-0.0674-0.0519-0.1063-0.0542l-0.6828-0.0376    C0.5611-23.4466,0.506-23.4133,0.47-23.3538l-0.4297,0.7111c-0.0361,0.0596-0.0489,0.1385-0.0344,0.2127l0.1719,0.8821    c0.0069,0.037,0.0203,0.0713,0.039,0.1l1.0047,1.5244c0.0072,0.0106,0.015,0.0204,0.0234,0.0291l0.2016,0.2148    c0.0299,0.0317,0.0666,0.0499,0.1047,0.0521l0.4984,0.0271L2.048-19.5981c-0.0361,0.0596-0.0489,0.1385-0.0344,0.2127    l0.1734,0.8842c0.0069,0.037,0.0203,0.0713,0.039,0.1l1.0031,1.5223c0.0067,0.0098,0.014,0.0189,0.0219,0.0271l0.2016,0.2169    C3.4828-16.602,3.52-16.583,3.5589-16.5806l0.5,0.0271l-0.0016,0.0021c-0.0361,0.0596-0.0489,0.1385-0.0344,0.2127l0.1719,0.8842    c0.0069,0.037,0.0203,0.0713,0.039,0.1l1.0047,1.5223c0.0067,0.0098,0.014,0.0189,0.0219,0.0271l0.2016,0.2169    c0.0301,0.0328,0.0674,0.0519,0.1062,0.0542l0.4984,0.025L6.065-13.5046c-0.0361,0.0596-0.0489,0.1385-0.0344,0.2127    l0.1719,0.8821c0.0069,0.037,0.0203,0.0713,0.039,0.1l1.0047,1.5223c0.0067,0.0098,0.014,0.0189,0.0219,0.0271l0.2016,0.2169    c0.0301,0.0328,0.0674,0.0519,0.1062,0.0542l0.4984,0.0271L8.0727-10.46c-0.0361,0.0596-0.0488,0.1385-0.0344,0.2127    l0.1734,0.8842c0.0069,0.037,0.0203,0.0713,0.039,0.1l1.0031,1.5223c0.0067,0.0098,0.014,0.0189,0.0219,0.0271l0.2016,0.2169    c0.0301,0.0328,0.0674,0.0519,0.1062,0.0542l0.5,0.0271l-0.0016,0.0021c-0.0361,0.0596-0.0489,0.1385-0.0344,0.2127l0.1719,0.8821    c0.0069,0.037,0.0203,0.0713,0.039,0.1l1.0047,1.5244c0.0072,0.0106,0.015,0.0204,0.0234,0.0291L11.4881-4.45    c0.0299,0.0317,0.0666,0.0499,0.1047,0.0521l0.4984,0.0271l-0.0016,0.0021c-0.0361,0.0596-0.0489,0.1385-0.0344,0.2127    l0.1719,0.8842c0.0069,0.037,0.0203,0.0713,0.039,0.1l1.0047,1.5223c0.0067,0.0098,0.014,0.0189,0.0219,0.0271l0.2016,0.2169    c0.0301,0.0328,0.0674,0.0519,0.1062,0.0542l0.6016,0.0333l0.0922,0.7069c0.0096,0.0756,0.0456,0.1406,0.0969,0.1752    l0.6109,0.4108C15.0273-0.0083,15.0551,0.0003,15.0833,0L15.0835-0.0004z"
         id="path4566_5_" /></g></pattern><rect
     id="rect10"
     height="1600"
     width="2560"
     fill="url(#New_Pattern)" /></svg>